<?xml version="1.0" encoding="UTF-8" standalone="no"?>
<svg
   viewBox="0 0 152.7 100.69"
   version="1.1"
   id="svg103"
   sodipodi:docname="logo.svg"
   inkscape:version="1.1 (c4e8f9e, 2021-05-24)"
   xmlns:inkscape="http://www.inkscape.org/namespaces/inkscape"
   xmlns:sodipodi="http://sodipodi.sourceforge.net/DTD/sodipodi-0.dtd"
   xmlns="http://www.w3.org/2000/svg"
   xmlns:svg="http://www.w3.org/2000/svg">
  <defs
     id="defs107" />
  <sodipodi:namedview
     id="namedview105"
     pagecolor="#ffffff"
     bordercolor="#666666"
     borderopacity="1.0"
     inkscape:pageshadow="2"
     inkscape:pageopacity="0.0"
     inkscape:pagecheckerboard="0"
     showgrid="false"
     inkscape:zoom="14.184676"
     inkscape:cx="71.732339"
     inkscape:cy="32.53511"
     inkscape:window-width="1296"
     inkscape:window-height="1081"
     inkscape:window-x="0"
     inkscape:window-y="25"
     inkscape:window-maximized="0"
     inkscape:current-layer="svg103" />
  <path
     d="M 1.96,0 C 0.88,0 0,0.85 0,1.88 v 88.3 c 0,1 0.88,1.86 1.94,1.86 H 123.35 V 90.4 L 1.96,90.39 C 1.81,90.389988 1.71,90.29 1.71,90.16 V 1.87 c 0,-0.14 0.1,-0.22 0.24,-0.22 h 148.8 c 0.15,0 0.24,0.08 0.24,0.23 v 88.3 c 0,0.13 -0.1,0.22 -0.24,0.22 h -27.4 v 1.64 h 27.4 c 1.07,0 1.95,-0.86 1.95,-1.88 V 1.87 C 152.7,0.85 151.82,0 150.76,0 Z"
     white-space="normal"
     style="text-indent:0;text-decoration-line:none;text-decoration-style:solid;text-decoration-color:#000000;text-transform:none;isolation:auto;mix-blend-mode:normal"
     color="#000000"
     solid-color="#000000"
     id="path99"
     sodipodi:nodetypes="ssssccssssssssccsssss" />
  <path
     d="M 72.43,75.45 C 69.21,75.1 67.95,74.91 66,74.48 c -4.5,-1 -8.23,-2.75 -11.48,-5.4 -8.24,-6.7 -13,-19.6 -14.36,-38.8 -0.32,-4.66 -0.4,-7.98 -0.23,-8.34 0.25,-0.5 0.93,-1.27 1.48,-1.7 4.06,-3.24 14,-5.02 30.3,-5.44 7.44,-0.18 16.9,0.22 23.04,0.98 5.87,0.73 9.62,1.64 12.4,3 1.04,0.52 1.3,0.7 1.95,1.34 1.12,1.1 1.14,1.2 1.27,4.88 0.05,1.65 0.1,3 0.12,3.02 0,0 0.25,-0.07 0.54,-0.18 1.34,-0.52 3.74,-1.3 5.06,-1.63 2.38,-0.6 3.17,-0.72 5.18,-0.72 2.04,0 2.84,0.15 4.15,0.8 1.93,0.95 4.3,3.56 5.42,5.96 0.97,2.14 1.3,3.56 1.28,5.85 0,1.9 -0.16,2.8 -0.75,4.58 -2.3,6.9 -10.07,14.34 -20.6,19.8 -4.68,2.4 -9.83,4.25 -13.62,4.86 l -1.05,0.16 -0.82,0.67 c -4.08,3.3 -9.88,5.82 -15.56,6.73 -2.63,0.42 -6,0.66 -7.3,0.53 z m 34.03,-19.1 c 3.4,-0.8 6.9,-2.25 9.45,-3.93 4.18,-2.75 7,-6.07 8.3,-9.84 0.46,-1.34 0.64,-2.35 0.64,-3.64 -0.02,-2 -0.5,-3.4 -1.58,-4.45 -1.07,-1.06 -2.34,-1.5 -4.08,-1.38 -2.25,0.13 -4.6,1.07 -7.45,2.98 -2.05,1.36 -1.87,1.1 -2.14,3.02 -0.86,6.16 -2.45,11.7 -4.7,16.46 l -0.55,1.2 0.46,-0.07 c 0.26,-0.04 1,-0.2 1.64,-0.35 z m -3.9,-32.1 c 0.45,-0.45 0.47,-0.8 0.06,-1.26 -0.35,-0.4 -0.9,-0.72 -1.78,-1.05 -4.46,-1.68 -14.23,-2.7 -25.75,-2.7 -11.48,0.02 -21.44,1.06 -25.65,2.7 -0.84,0.33 -1.65,0.9 -1.87,1.28 -0.55,1 1.2,2 4.94,2.84 7.475088,1.197062 13.950635,1.78 20.74,1.78 27.50986,-1.298809 24.869989,-1.761487 29.31,-3.59 z"
     id="path101"
     sodipodi:nodetypes="ccccccccccccccsccccccccccccccccccccccccccccccccc" />
</svg>
